{"asset":{"generator":"3D Builder","version":"2.0"},"scene":0,"scenes":[{"nodes":[0]}],"nodes":[{"children":[1,2,3]},{"mesh":0,"matrix":[-1,2.3282660521761755E-10,-3.3561629919631741E-8,0,3.3561700973905317E-8,2.5103230427703238E-7,-0.99999982118606567,0,-2.8638169169425964E-8,-0.99999988079071045,-2.5103167899942491E-7,0,-0.050000004470348358,0.0039999992586672306,-3.2656433113231742E-9,1]},{"mesh":1,"matrix":[-1,2.3282660521761755E-10,-3.3561629919631741E-8,0,3.3561700973905317E-8,2.5103230427703238E-7,-0.99999982118606567,0,-2.8638169169425964E-8,-0.99999988079071045,-2.5103167899942491E-7,0,2.9569599806905655E-12,0.0039999992586672306,-1.5875616377059032E-9,1]},{"mesh":2,"matrix":[-1,2.3282660521761755E-10,-3.3561629919631741E-8,0,3.3561700973905317E-8,2.5103230427703238E-7,-0.99999982118606567,0,-2.8638169169425964E-8,-0.99999988079071045,-2.5103167899942491E-7,0,0.050000004470348358,0.0039999992586672306,9.0519869377914119E-11,1]}],"meshes":[{"primitives":[{"attributes":{"POSITION":0,"COLOR_0":1},"mode":4,"indices":2}]},{"primitives":[{"attributes":{"POSITION":3,"COLOR_0":4},"mode":4,"indices":5}]},{"primitives":[{"attributes":{"POSITION":6,"COLOR_0":7},"mode":4,"indices":8}]}],"accessors":[{"bufferView":0,"byteOffset":0,"count":48098,"componentType":5126,"type":"VEC3","min":[-0.034000001847743988,-0.0090000024065375328,-0.010000001639127731],"max":[-0.016000000759959221,0.0090000014752149582,0.0039999997243285179]},{"bufferView":1,"byteOffset":0,"count":48098,"componentType":5121,"type":"VEC4","normalized":true},{"bufferView":2,"byteOffset":0,"count":288576,"componentType":5125,"type":"SCALAR"},{"bufferView":3,"byteOffset":0,"count":47492,"componentType":5126,"type":"VEC3","min":[-0.0090000005438923836,-0.0090000024065375328,-0.010000001639127731],"max":[0.0090000005438923836,0.0090000014752149582,0.0039999997243285179]},{"bufferView":4,"byteOffset":0,"count":47492,"componentType":5121,"type":"VEC4","normalized":true},{"bufferView":5,"byteOffset":0,"count":284940,"componentType":5125,"type":"SCALAR"},{"bufferView":6,"byteOffset":0,"count":46512,"componentType":5126,"type":"VEC3","min":[0.016000000759959221,-0.0090000024065375328,-0.010000001639127731],"max":[0.034000001847743988,0.0090000014752149582,0.0039999997243285179]},{"bufferView":7,"byteOffset":0,"count":46512,"componentType":5121,"type":"VEC4","normalized":true},{"bufferView":8,"byteOffset":0,"count":279060,"componentType":5125,"type":"SCALAR"}],"bufferViews":[{"buffer":0,"byteOffset":0,"byteLength":577176,"byteStride":12,"target":34962},{"buffer":0,"byteOffset":577176,"byteLength":192392,"byteStride":4,"target":34962},{"buffer":0,"byteOffset":769568,"byteLength":1154304,"target":34963},{"buffer":0,"byteOffset":1923872,"byteLength":569904,"byteStride":12,"target":34962},{"buffer":0,"byteOffset":2493776,"byteLength":189968,"byteStride":4,"target":34962},{"buffer":0,"byteOffset":2683744,"byteLength":1139760,"target":34963},{"buffer":0,"byteOffset":3823504,"byteLength":558144,"byteStride":12,"target":34962},{"buffer":0,"byteOffset":4381648,"byteLength":186048,"byteStride":4,"target":34962},{"buffer":0,"byteOffset":4567696,"byteLength":1116240,"target":34963}],"buffers":[{"byteLength":5683936,"uri":"Social_Stamps.bin"}]}