<svg width="36" height="36" viewBox="0 0 36 36" fill="none" xmlns="http://www.w3.org/2000/svg">
<path d="M36 18C36 8.1 27.9 8.65486e-07 18 0C8.1 -8.65485e-07 8.65486e-07 8.1 0 18C-8.65485e-07 27.9 8.1 36 18 36C27.9 36 36 27.9 36 18ZM17.028 26.172C16.524 25.632 16.524 24.768 17.028 24.264L21.924 19.368H10.8C10.044 19.368 9.432 18.756 9.432 18C9.432 17.244 10.044 16.668 10.8 16.668H21.924L17.028 11.772C16.524 11.232 16.524 10.368 17.028 9.864C17.532 9.36 18.432 9.324 18.936 9.864L26.136 17.064C26.28 17.172 26.388 17.316 26.46 17.496C26.496 17.64 26.532 17.82 26.532 18C26.532 18.36 26.424 18.684 26.136 18.972L18.936 26.172C18.432 26.676 17.568 26.676 17.028 26.172Z" fill="white"/>
</svg>
