<svg width="36" height="36" viewBox="0 0 36 36" fill="none" xmlns="http://www.w3.org/2000/svg">
<path d="M0 18C0 27.9 8.1 36 18 36C27.9 36 36 27.9 36 18C36 8.1 27.9 0 18 0C8.1 0 0 8.1 0 18ZM18.972 9.828C19.476 10.368 19.476 11.232 18.972 11.736L14.076 16.632H25.2C25.956 16.632 26.568 17.244 26.568 18C26.568 18.756 25.956 19.332 25.2 19.332H14.076L18.972 24.228C19.476 24.768 19.476 25.632 18.972 26.136C18.468 26.64 17.568 26.676 17.064 26.136L9.864 18.936C9.72 18.828 9.612 18.684 9.54 18.504C9.504 18.36 9.468 18.18 9.468 18C9.468 17.64 9.576 17.316 9.864 17.028L17.064 9.828C17.568 9.324 18.432 9.324 18.972 9.828Z" fill="white"/>
</svg>
